<?xml version="1.0" standalone="no"?><!DOCTYPE svg PUBLIC "-//W3C//DTD SVG 1.1//EN" "http://www.w3.org/Graphics/SVG/1.1/DTD/svg11.dtd"><svg t="1669517320060" class="icon" viewBox="0 0 1024 1024" version="1.1" xmlns="http://www.w3.org/2000/svg" p-id="5247" xmlns:xlink="http://www.w3.org/1999/xlink" width="128" height="128"><path d="M512 0a512 512 0 1 0 0 1024A512 512 0 0 0 512 0zM420.571429 685.714286a9.142857 9.142857 0 0 1-9.142858 9.142857h-54.857142a9.142857 9.142857 0 0 1-9.142858-9.142857v-347.428572c0-5.046857 4.096-9.142857 9.142858-9.142857h54.857142c5.046857 0 9.142857 4.096 9.142858 9.142857v347.428572z m256 0a9.142857 9.142857 0 0 1-9.142858 9.142857h-54.857142a9.142857 9.142857 0 0 1-9.142858-9.142857v-347.428572c0-5.046857 4.096-9.142857 9.142858-9.142857h54.857142c5.046857 0 9.142857 4.096 9.142858 9.142857v347.428572z" fill="#13227a" p-id="5248"></path></svg>